<svg id="_3994382_access_close_exit_logout_sign_out_icon" data-name="3994382_access_close_exit_logout_sign out_icon" xmlns="http://www.w3.org/2000/svg" width="20" height="20" viewBox="0 0 20 20">
  <path id="Path_514" data-name="Path 514" d="M4.268,30.25H13.75a1.25,1.25,0,0,0,0-2.5H4.268l1.616-1.616a1.25,1.25,0,1,0-1.768-1.768l-3.75,3.75a1.25,1.25,0,0,0,0,1.768l3.75,3.75a1.25,1.25,0,1,0,1.768-1.768Z" transform="translate(0 -19)" fill="#fff"/>
  <path id="Path_515" data-name="Path 515" d="M47.25,0h-10A1.249,1.249,0,0,0,36,1.25v2.5a1.25,1.25,0,1,0,2.5,0V2.5H46v15H38.5V16.25a1.25,1.25,0,1,0-2.5,0v2.5A1.249,1.249,0,0,0,37.25,20h10a1.249,1.249,0,0,0,1.25-1.25V1.25A1.249,1.249,0,0,0,47.25,0Z" transform="translate(-28.5 0)" fill="#fff"/>
</svg>
