<svg xmlns="http://www.w3.org/2000/svg" width="25.707" height="25.707" viewBox="0 0 25.707 25.707">
  <g id="_4634426_interface_off_shutdown_turn_off_icon" data-name="4634426_interface_off_shutdown_turn off_icon" transform="translate(-5 -5)">
    <g id="Group_947" data-name="Group 947" transform="translate(16.685 5)">
      <path id="Path_529" data-name="Path 529" d="M16.169,21.1c-.646,0-1.169-.9-1.169-2.013V7.013C15,5.9,15.523,5,16.169,5s1.169.9,1.169,2.013V19.088C17.337,20.2,16.814,21.1,16.169,21.1Z" transform="translate(-15 -5)" fill="#fff"/>
    </g>
    <g id="Group_948" data-name="Group 948" transform="translate(5 5.972)">
      <path id="Path_530" data-name="Path 530" d="M17.854,30.567A12.855,12.855,0,0,1,12.62,5.97,1.168,1.168,0,1,1,13.572,8.1a10.517,10.517,0,1,0,8.488-.033A1.169,1.169,0,0,1,23,5.93a12.856,12.856,0,0,1-5.142,24.637Z" transform="translate(-5 -5.832)" fill="#fff"/>
    </g>
  </g>
</svg>
