<svg id="_7122348_switch_horizontal_icon" data-name="7122348_switch_horizontal_icon" xmlns="http://www.w3.org/2000/svg" width="14.778" height="16.889" viewBox="0 0 14.778 16.889">
  <path id="Path_527" data-name="Path 527" d="M8.056,5.167a1.056,1.056,0,0,0,0,2.111h5.9L12.587,8.642a1.056,1.056,0,0,0,1.493,1.493l3.167-3.167a1.056,1.056,0,0,0,0-1.493L14.08,2.309A1.056,1.056,0,1,0,12.587,3.8l1.365,1.365Z" transform="translate(-2.778 -2)" fill="#fff"/>
  <path id="Path_528" data-name="Path 528" d="M12.5,15.278a1.056,1.056,0,0,0,0-2.111H6.6L7.969,11.8a1.056,1.056,0,0,0-1.493-1.493L3.309,13.476a1.056,1.056,0,0,0,0,1.493l3.167,3.167a1.056,1.056,0,1,0,1.493-1.493L6.6,15.278Z" transform="translate(-3 -1.556)" fill="#fff"/>
</svg>
