<svg xmlns="http://www.w3.org/2000/svg" width="34.323" height="25.106" viewBox="0 0 34.323 25.106">
  <g id="_8103339_office_megaphone_speaker_loudspeaker_announce_icon" data-name="8103339_office_megaphone_speaker_loudspeaker_announce_icon" transform="translate(-2 -5.759)">
    <path id="Path_523" data-name="Path 523" d="M5.755,22.442l.639,5.641a1.161,1.161,0,0,0,.051.241,3.678,3.678,0,0,0,6.995-2.276l-1.017-3.127h.32L22.29,27.7a1.235,1.235,0,0,0,.548.129A1.228,1.228,0,0,0,24.065,26.6V21.522a4.88,4.88,0,0,0,0-9.458V6.986a1.227,1.227,0,0,0-1.775-1.1l-9.547,4.775H8.129A6.129,6.129,0,0,0,5.755,22.442Zm5.353,4.365a1.226,1.226,0,0,1-2.295.856l-.538-4.741H9.843ZM25.291,16.793A2.444,2.444,0,0,1,24.065,18.9v-4.22A2.44,2.44,0,0,1,25.291,16.793Zm-3.677,7.823-7.355-3.677V12.647l7.355-3.677ZM8.129,13.115h3.677V20.47H8.129a3.677,3.677,0,1,1,0-7.355Z" transform="translate(0)" fill="#fff"/>
    <path id="Path_524" data-name="Path 524" d="M27.226,16.212h2.452a1.226,1.226,0,0,0,0-2.452H27.226a1.226,1.226,0,0,0,0,2.452Z" transform="translate(5.42 1.807)" fill="#fff"/>
    <path id="Path_525" data-name="Path 525" d="M27.226,11.238a1.222,1.222,0,0,0,.867-.359l1.733-1.733a1.226,1.226,0,0,0-1.733-1.733L26.359,9.146a1.226,1.226,0,0,0,.867,2.092Z" transform="translate(5.42 0.292)" fill="#fff"/>
    <path id="Path_526" data-name="Path 526" d="M28.093,22.879a1.226,1.226,0,0,0,1.733-1.733l-1.733-1.733a1.226,1.226,0,0,0-1.733,1.733Z" transform="translate(5.42 3.002)" fill="#fff"/>
  </g>
</svg>
