<svg xmlns="http://www.w3.org/2000/svg" width="32.72" height="32" viewBox="0 0 32.72 32">
  <g id="Group_979" data-name="Group 979" transform="translate(-1772.64 -819)">
    <g id="_172475_headset_support_icon" data-name="172475_headset_support_icon" transform="translate(1773 819)">
      <rect id="Rectangle_983" data-name="Rectangle 983" width="32" height="32" fill="none"/>
      <path id="Path_516" data-name="Path 516" d="M42.56,19.28a1.28,1.28,0,1,0-2.56,0v9.6a1.28,1.28,0,1,0,2.56,0Z" transform="translate(-14.4 -6.48)" fill="none" stroke="#fff" stroke-width="2"/>
      <path id="Path_517" data-name="Path 517" d="M25.48,45.56a1.28,1.28,0,1,0,0-2.56h-3.2a1.28,1.28,0,1,0,0,2.56Z" transform="translate(-7.56 -15.48)" fill="none" stroke="#fff" stroke-width="2"/>
      <path id="Path_518" data-name="Path 518" d="M8,12.88a10.88,10.88,0,1,1,21.76,0" transform="translate(-2.88 -0.72)" fill="none" stroke="#fff" stroke-width="2"/>
      <path id="Path_519" data-name="Path 519" d="M44,20c1.768,0,3.2,2.148,3.2,4.8s-1.432,4.8-3.2,4.8" transform="translate(-15.84 -7.2)" fill="none" stroke="#fff" stroke-width="2"/>
      <path id="Path_520" data-name="Path 520" d="M6,19.28a1.28,1.28,0,0,1,2.56,0v9.6a1.28,1.28,0,1,1-2.56,0Z" transform="translate(-2.16 -6.48)" fill="none" stroke="#fff" stroke-width="2"/>
      <path id="Path_521" data-name="Path 521" d="M4.2,20C2.433,20,1,22.148,1,24.8s1.433,4.8,3.2,4.8" transform="translate(-0.36 -7.2)" fill="none" stroke="#fff" stroke-width="2"/>
      <path id="Path_522" data-name="Path 522" d="M37.68,37c0,3.2-1.92,5.12-5.12,5.12H30" transform="translate(-10.8 -13.32)" fill="none" stroke="#fff" stroke-width="2"/>
    </g>
    <circle id="Ellipse_96" data-name="Ellipse 96" cx="7" cy="7" r="7" transform="translate(1782 828)" fill="#fff"/>
  </g>
</svg>
