<svg xmlns="http://www.w3.org/2000/svg" width="435.971" height="240.82" viewBox="0 0 435.971 240.82">
  <g id="Group_1064" data-name="Group 1064" transform="translate(-742.343 -586.462)">
    <g id="Group_908" data-name="Group 908" transform="translate(1161.5 9340)">
      <g id="Group_945" data-name="Group 945" transform="translate(19.857 -0.001)">
        <path id="Path_431" data-name="Path 431" d="M-336.835-8708.5l36.393-36.391,36.392,36.391" transform="translate(80.05 -7.23)" fill="none" stroke="#fff2b4" stroke-width="2"/>
        <path id="Path_432" data-name="Path 432" d="M-336.835-8727.689l17.206-17.2,17.206,17.2" transform="translate(99.236 11.981)" fill="none" stroke="#fff2b4" stroke-width="2"/>
        <path id="Path_433" data-name="Path 433" d="M-307.262-8763.186h-8.79l-24.2,24.205" transform="translate(74.032 23.274)" fill="none" stroke="#fff2b4" stroke-width="2"/>
        <path id="Path_434" data-name="Path 434" d="M-340.256-8763.186h8.79l24.2,24.205" transform="translate(131.973 23.274)" fill="none" stroke="#fff2b4" stroke-width="2"/>
      </g>
      <line id="Line_236" data-name="Line 236" x2="405.104" transform="translate(-403.451 -8715.707)" fill="none" stroke="#fff2b4" stroke-width="2"/>
      <line id="Line_237" data-name="Line 237" x2="263.5" transform="translate(-332.649 -8521.655)" fill="none" stroke="#fff2b4" stroke-width="2"/>
      <path id="Path_435" data-name="Path 435" d="M-335.561-8745.5l7.937,7.938h93.805l7.936-7.937" transform="translate(79.823 223.845)" fill="none" stroke="#fff2b4" stroke-width="2"/>
    </g>
    <g id="Rectangle_981" data-name="Rectangle 981" transform="translate(742.343 624) rotate(-45)" fill="none" stroke="#fff2b4" stroke-width="2">
      <rect width="12" height="12" stroke="none"/>
      <rect x="1" y="1" width="10" height="10" fill="none"/>
    </g>
    <g id="Rectangle_982" data-name="Rectangle 982" transform="translate(1161.343 624) rotate(-45)" fill="none" stroke="#fff2b4" stroke-width="2">
      <rect width="12" height="12" stroke="none"/>
      <rect x="1" y="1" width="10" height="10" fill="none"/>
    </g>
  </g>
</svg>
